<?xml version="1.0" encoding="UTF-8"?>
<!DOCTYPE svg PUBLIC "-//W3C//DTD SVG 1.1//EN" "http://www.w3.org/Graphics/SVG/1.1/DTD/svg11.dtd">
<svg version="1.1" xmlns="http://www.w3.org/2000/svg" xmlns:xlink="http://www.w3.org/1999/xlink" x="0" y="0" width="1024" height="768" viewBox="0, 0, 1024, 768">
  <defs>
    <pattern id="Pattern_1" patternUnits="userSpaceOnUse" x="749.167" y="575.425" width="20" height="20">
      <g transform="translate(-0, -0)">
        <path d="M0,0 L20,0 L20,20 L0,20 z" fill="#F2F2F2"/>
        <path d="M0,0 L10,0 L10,10 L0,10 z" fill="#808080"/>
        <path d="M10,10 L20,10 L20,20 L10,20 z" fill="#808080"/>
      </g>
    </pattern>
  </defs>
  <g id="Layer_1">
    <g>
      <g>
        <g>
          <path d="M224.543,57.236 L283.724,57.236 L283.724,116.417 L224.543,116.417 L224.543,57.236 z" fill="#FFFFFF"/>
          <path d="M224.543,57.236 L283.724,57.236 L283.724,116.417 L224.543,116.417 L224.543,57.236 z" fill-opacity="0" stroke="#000000" stroke-width="1"/>
        </g>
        <g>
          <path d="M254.134,108.026 C242.425,108.026 232.934,98.535 232.934,86.826 C232.934,75.118 242.425,65.627 254.134,65.627 C265.842,65.627 275.333,75.118 275.333,86.826 C275.333,98.535 265.842,108.026 254.134,108.026 z" fill="#0137CF"/>
          <path d="M254.134,108.026 C242.425,108.026 232.934,98.535 232.934,86.826 C232.934,75.118 242.425,65.627 254.134,65.627 C265.842,65.627 275.333,75.118 275.333,86.826 C275.333,98.535 265.842,108.026 254.134,108.026 z" fill-opacity="0" stroke="#000000" stroke-width="1"/>
        </g>
      </g>
      <g>
        <g>
          <path d="M298.362,57.236 L357.543,57.236 L357.543,116.417 L298.362,116.417 L298.362,57.236 z" fill="#FFFFFF"/>
          <path d="M298.362,57.236 L357.543,57.236 L357.543,116.417 L298.362,116.417 L298.362,57.236 z" fill-opacity="0" stroke="#000000" stroke-width="1"/>
        </g>
        <g>
          <path d="M327.953,108.026 C316.244,108.026 306.753,98.535 306.753,86.826 C306.753,75.118 316.244,65.627 327.953,65.627 C339.661,65.627 349.152,75.118 349.152,86.826 C349.152,98.535 339.661,108.026 327.953,108.026 z" fill="#FFFFFF"/>
          <path d="M327.953,108.026 C316.244,108.026 306.753,98.535 306.753,86.826 C306.753,75.118 316.244,65.627 327.953,65.627 C339.661,65.627 349.152,75.118 349.152,86.826 C349.152,98.535 339.661,108.026 327.953,108.026 z" fill-opacity="0" stroke="#000000" stroke-width="1"/>
        </g>
      </g>
      <g>
        <g>
          <path d="M519.819,57.236 L579,57.236 L579,116.417 L519.819,116.417 L519.819,57.236 z" fill="#FFFFFF"/>
          <path d="M519.819,57.236 L579,57.236 L579,116.417 L519.819,116.417 L519.819,57.236 z" fill-opacity="0" stroke="#000000" stroke-width="1"/>
        </g>
        <g>
          <path d="M549.41,108.026 C537.701,108.026 528.21,98.535 528.21,86.826 C528.21,75.118 537.701,65.627 549.41,65.627 C561.118,65.627 570.609,75.118 570.609,86.826 C570.609,98.535 561.118,108.026 549.41,108.026 z" fill="#FFFFFF"/>
          <path d="M549.41,108.026 C537.701,108.026 528.21,98.535 528.21,86.826 C528.21,75.118 537.701,65.627 549.41,65.627 C561.118,65.627 570.609,75.118 570.609,86.826 C570.609,98.535 561.118,108.026 549.41,108.026 z" fill-opacity="0" stroke="#000000" stroke-width="1"/>
        </g>
      </g>
      <g>
        <g>
          <path d="M593.638,57.236 L652.819,57.236 L652.819,116.417 L593.638,116.417 L593.638,57.236 z" fill="#FFFFFF"/>
          <path d="M593.638,57.236 L652.819,57.236 L652.819,116.417 L593.638,116.417 L593.638,57.236 z" fill-opacity="0" stroke="#000000" stroke-width="1"/>
        </g>
        <g>
          <path d="M623.229,108.026 C611.52,108.026 602.029,98.535 602.029,86.826 C602.029,75.118 611.52,65.627 623.229,65.627 C634.937,65.627 644.428,75.118 644.428,86.826 C644.428,98.535 634.937,108.026 623.229,108.026 z" fill="#FFFFFF"/>
          <path d="M623.229,108.026 C611.52,108.026 602.029,98.535 602.029,86.826 C602.029,75.118 611.52,65.627 623.229,65.627 C634.937,65.627 644.428,75.118 644.428,86.826 C644.428,98.535 634.937,108.026 623.229,108.026 z" fill-opacity="0" stroke="#000000" stroke-width="1"/>
        </g>
      </g>
      <g>
        <g>
          <path d="M372.181,57.236 L431.362,57.236 L431.362,116.417 L372.181,116.417 L372.181,57.236 z" fill="#FFFFFF"/>
          <path d="M372.181,57.236 L431.362,57.236 L431.362,116.417 L372.181,116.417 L372.181,57.236 z" fill-opacity="0" stroke="#000000" stroke-width="1"/>
        </g>
        <g>
          <path d="M401.772,108.026 C390.064,108.026 380.572,98.535 380.572,86.826 C380.572,75.118 390.064,65.627 401.772,65.627 C413.48,65.627 422.971,75.118 422.971,86.826 C422.971,98.535 413.48,108.026 401.772,108.026 z" fill="#FFFFFF"/>
          <path d="M401.772,108.026 C390.064,108.026 380.572,98.535 380.572,86.826 C380.572,75.118 390.064,65.627 401.772,65.627 C413.48,65.627 422.971,75.118 422.971,86.826 C422.971,98.535 413.48,108.026 401.772,108.026 z" fill-opacity="0" stroke="#000000" stroke-width="1"/>
        </g>
      </g>
      <g>
        <g>
          <path d="M446,57.236 L505.181,57.236 L505.181,116.417 L446,116.417 L446,57.236 z" fill="#FFFFFF"/>
          <path d="M446,57.236 L505.181,57.236 L505.181,116.417 L446,116.417 L446,57.236 z" fill-opacity="0" stroke="#000000" stroke-width="1"/>
        </g>
        <g>
          <path d="M475.591,108.026 C463.883,108.026 454.391,98.535 454.391,86.826 C454.391,75.118 463.883,65.627 475.591,65.627 C487.299,65.627 496.79,75.118 496.79,86.826 C496.79,98.535 487.299,108.026 475.591,108.026 z" fill="#FFFFFF"/>
          <path d="M475.591,108.026 C463.883,108.026 454.391,98.535 454.391,86.826 C454.391,75.118 463.883,65.627 475.591,65.627 C487.299,65.627 496.79,75.118 496.79,86.826 C496.79,98.535 487.299,108.026 475.591,108.026 z" fill-opacity="0" stroke="#000000" stroke-width="1"/>
        </g>
      </g>
      <g>
        <g>
          <path d="M667.457,57.236 L726.638,57.236 L726.638,116.417 L667.457,116.417 L667.457,57.236 z" fill="#FFFFFF"/>
          <path d="M667.457,57.236 L726.638,57.236 L726.638,116.417 L667.457,116.417 L667.457,57.236 z" fill-opacity="0" stroke="#000000" stroke-width="1"/>
        </g>
        <g>
          <path d="M697.047,108.026 C685.339,108.026 675.848,98.535 675.848,86.826 C675.848,75.118 685.339,65.627 697.047,65.627 C708.756,65.627 718.247,75.118 718.247,86.826 C718.247,98.535 708.756,108.026 697.047,108.026 z" fill="#FFFFFF"/>
          <path d="M697.047,108.026 C685.339,108.026 675.848,98.535 675.848,86.826 C675.848,75.118 685.339,65.627 697.047,65.627 C708.756,65.627 718.247,75.118 718.247,86.826 C718.247,98.535 708.756,108.026 697.047,108.026 z" fill-opacity="0" stroke="#000000" stroke-width="1"/>
        </g>
      </g>
      <g>
        <g>
          <path d="M741.276,57.236 L800.457,57.236 L800.457,116.417 L741.276,116.417 L741.276,57.236 z" fill="#FFFFFF"/>
          <path d="M741.276,57.236 L800.457,57.236 L800.457,116.417 L741.276,116.417 L741.276,57.236 z" fill-opacity="0" stroke="#000000" stroke-width="1"/>
        </g>
        <g>
          <path d="M770.866,108.026 C759.158,108.026 749.667,98.535 749.667,86.826 C749.667,75.118 759.158,65.627 770.866,65.627 C782.575,65.627 792.066,75.118 792.066,86.826 C792.066,98.535 782.575,108.026 770.866,108.026 z" fill="#FFFFFF"/>
          <path d="M770.866,108.026 C759.158,108.026 749.667,98.535 749.667,86.826 C749.667,75.118 759.158,65.627 770.866,65.627 C782.575,65.627 792.066,75.118 792.066,86.826 C792.066,98.535 782.575,108.026 770.866,108.026 z" fill-opacity="0" stroke="#000000" stroke-width="1"/>
        </g>
      </g>
    </g>
    <g>
      <g>
        <g>
          <path d="M224.543,397.434 L283.724,397.434 L283.724,456.615 L224.543,456.615 L224.543,397.434 z" fill="#FFFFFF"/>
          <path d="M224.543,397.434 L283.724,397.434 L283.724,456.615 L224.543,456.615 L224.543,397.434 z" fill-opacity="0" stroke="#000000" stroke-width="1"/>
        </g>
        <g>
          <path d="M254.134,448.224 C242.425,448.224 232.934,438.733 232.934,427.025 C232.934,415.317 242.425,405.825 254.134,405.825 C265.842,405.825 275.333,415.317 275.333,427.025 C275.333,438.733 265.842,448.224 254.134,448.224 z" fill="#FFFFFF"/>
          <path d="M254.134,448.224 C242.425,448.224 232.934,438.733 232.934,427.025 C232.934,415.317 242.425,405.825 254.134,405.825 C265.842,405.825 275.333,415.317 275.333,427.025 C275.333,438.733 265.842,448.224 254.134,448.224 z" fill-opacity="0" stroke="#000000" stroke-width="1"/>
        </g>
      </g>
      <g>
        <g>
          <path d="M298.362,397.434 L357.543,397.434 L357.543,456.615 L298.362,456.615 L298.362,397.434 z" fill="#FFFFFF"/>
          <path d="M298.362,397.434 L357.543,397.434 L357.543,456.615 L298.362,456.615 L298.362,397.434 z" fill-opacity="0" stroke="#000000" stroke-width="1"/>
        </g>
        <g>
          <path d="M327.953,448.224 C316.244,448.224 306.753,438.733 306.753,427.025 C306.753,415.317 316.244,405.825 327.953,405.825 C339.661,405.825 349.152,415.317 349.152,427.025 C349.152,438.733 339.661,448.224 327.953,448.224 z" fill="#FFFFFF"/>
          <path d="M327.953,448.224 C316.244,448.224 306.753,438.733 306.753,427.025 C306.753,415.317 316.244,405.825 327.953,405.825 C339.661,405.825 349.152,415.317 349.152,427.025 C349.152,438.733 339.661,448.224 327.953,448.224 z" fill-opacity="0" stroke="#000000" stroke-width="1"/>
        </g>
      </g>
      <g>
        <g>
          <path d="M519.819,397.434 L579,397.434 L579,456.615 L519.819,456.615 L519.819,397.434 z" fill="#FFFFFF"/>
          <path d="M519.819,397.434 L579,397.434 L579,456.615 L519.819,456.615 L519.819,397.434 z" fill-opacity="0" stroke="#000000" stroke-width="1"/>
        </g>
        <g>
          <path d="M549.41,448.224 C537.701,448.224 528.21,438.733 528.21,427.025 C528.21,415.317 537.701,405.825 549.41,405.825 C561.118,405.825 570.609,415.317 570.609,427.025 C570.609,438.733 561.118,448.224 549.41,448.224 z" fill="#FFFFFF"/>
          <path d="M549.41,448.224 C537.701,448.224 528.21,438.733 528.21,427.025 C528.21,415.317 537.701,405.825 549.41,405.825 C561.118,405.825 570.609,415.317 570.609,427.025 C570.609,438.733 561.118,448.224 549.41,448.224 z" fill-opacity="0" stroke="#000000" stroke-width="1"/>
        </g>
      </g>
      <g>
        <g>
          <path d="M593.638,397.434 L652.819,397.434 L652.819,456.615 L593.638,456.615 L593.638,397.434 z" fill="#FFFFFF"/>
          <path d="M593.638,397.434 L652.819,397.434 L652.819,456.615 L593.638,456.615 L593.638,397.434 z" fill-opacity="0" stroke="#000000" stroke-width="1"/>
        </g>
        <g>
          <path d="M623.229,448.224 C611.52,448.224 602.029,438.733 602.029,427.025 C602.029,415.317 611.52,405.825 623.229,405.825 C634.937,405.825 644.428,415.317 644.428,427.025 C644.428,438.733 634.937,448.224 623.229,448.224 z" fill="#00EC2C"/>
          <path d="M623.229,448.224 C611.52,448.224 602.029,438.733 602.029,427.025 C602.029,415.317 611.52,405.825 623.229,405.825 C634.937,405.825 644.428,415.317 644.428,427.025 C644.428,438.733 634.937,448.224 623.229,448.224 z" fill-opacity="0" stroke="#000000" stroke-width="1"/>
        </g>
      </g>
      <g>
        <g>
          <path d="M372.181,397.434 L431.362,397.434 L431.362,456.615 L372.181,456.615 L372.181,397.434 z" fill="#FFFFFF"/>
          <path d="M372.181,397.434 L431.362,397.434 L431.362,456.615 L372.181,456.615 L372.181,397.434 z" fill-opacity="0" stroke="#000000" stroke-width="1"/>
        </g>
        <g>
          <path d="M401.772,448.224 C390.064,448.224 380.572,438.733 380.572,427.025 C380.572,415.317 390.064,405.825 401.772,405.825 C413.48,405.825 422.971,415.317 422.971,427.025 C422.971,438.733 413.48,448.224 401.772,448.224 z" fill="#FFFFFF"/>
          <path d="M401.772,448.224 C390.064,448.224 380.572,438.733 380.572,427.025 C380.572,415.317 390.064,405.825 401.772,405.825 C413.48,405.825 422.971,415.317 422.971,427.025 C422.971,438.733 413.48,448.224 401.772,448.224 z" fill-opacity="0" stroke="#000000" stroke-width="1"/>
        </g>
      </g>
      <g>
        <g>
          <path d="M446,397.434 L505.181,397.434 L505.181,456.615 L446,456.615 L446,397.434 z" fill="#FFFFFF"/>
          <path d="M446,397.434 L505.181,397.434 L505.181,456.615 L446,456.615 L446,397.434 z" fill-opacity="0" stroke="#000000" stroke-width="1"/>
        </g>
        <g>
          <path d="M475.591,448.224 C463.883,448.224 454.391,438.733 454.391,427.025 C454.391,415.317 463.883,405.825 475.591,405.825 C487.299,405.825 496.79,415.317 496.79,427.025 C496.79,438.733 487.299,448.224 475.591,448.224 z" fill="#FFFFFF"/>
          <path d="M475.591,448.224 C463.883,448.224 454.391,438.733 454.391,427.025 C454.391,415.317 463.883,405.825 475.591,405.825 C487.299,405.825 496.79,415.317 496.79,427.025 C496.79,438.733 487.299,448.224 475.591,448.224 z" fill-opacity="0" stroke="#000000" stroke-width="1"/>
        </g>
      </g>
      <g>
        <g>
          <path d="M667.457,397.434 L726.638,397.434 L726.638,456.615 L667.457,456.615 L667.457,397.434 z" fill="#FFFFFF"/>
          <path d="M667.457,397.434 L726.638,397.434 L726.638,456.615 L667.457,456.615 L667.457,397.434 z" fill-opacity="0" stroke="#000000" stroke-width="1"/>
        </g>
        <g>
          <path d="M697.047,448.224 C685.339,448.224 675.848,438.733 675.848,427.025 C675.848,415.317 685.339,405.825 697.047,405.825 C708.756,405.825 718.247,415.317 718.247,427.025 C718.247,438.733 708.756,448.224 697.047,448.224 z" fill="#FFFFFF"/>
          <path d="M697.047,448.224 C685.339,448.224 675.848,438.733 675.848,427.025 C675.848,415.317 685.339,405.825 697.047,405.825 C708.756,405.825 718.247,415.317 718.247,427.025 C718.247,438.733 708.756,448.224 697.047,448.224 z" fill-opacity="0" stroke="#000000" stroke-width="1"/>
        </g>
      </g>
      <g>
        <g>
          <path d="M741.276,397.434 L800.457,397.434 L800.457,456.615 L741.276,456.615 L741.276,397.434 z" fill="#FFFFFF"/>
          <path d="M741.276,397.434 L800.457,397.434 L800.457,456.615 L741.276,456.615 L741.276,397.434 z" fill-opacity="0" stroke="#000000" stroke-width="1"/>
        </g>
        <g>
          <path d="M770.866,448.224 C759.158,448.224 749.667,438.733 749.667,427.025 C749.667,415.317 759.158,405.825 770.866,405.825 C782.575,405.825 792.066,415.317 792.066,427.025 C792.066,438.733 782.575,448.224 770.866,448.224 z" fill="#FFFFFF"/>
          <path d="M770.866,448.224 C759.158,448.224 749.667,438.733 749.667,427.025 C749.667,415.317 759.158,405.825 770.866,405.825 C782.575,405.825 792.066,415.317 792.066,427.025 C792.066,438.733 782.575,448.224 770.866,448.224 z" fill-opacity="0" stroke="#000000" stroke-width="1"/>
        </g>
      </g>
    </g>
    <g>
      <g>
        <g>
          <path d="M224.543,227.335 L283.724,227.335 L283.724,286.516 L224.543,286.516 L224.543,227.335 z" fill="#FFFFFF"/>
          <path d="M224.543,227.335 L283.724,227.335 L283.724,286.516 L224.543,286.516 L224.543,227.335 z" fill-opacity="0" stroke="#000000" stroke-width="1"/>
        </g>
        <g>
          <path d="M254.134,278.125 C242.425,278.125 232.934,268.634 232.934,256.926 C232.934,245.218 242.425,235.726 254.134,235.726 C265.842,235.726 275.333,245.218 275.333,256.926 C275.333,268.634 265.842,278.125 254.134,278.125 z" fill="#D11D00"/>
          <path d="M254.134,278.125 C242.425,278.125 232.934,268.634 232.934,256.926 C232.934,245.218 242.425,235.726 254.134,235.726 C265.842,235.726 275.333,245.218 275.333,256.926 C275.333,268.634 265.842,278.125 254.134,278.125 z" fill-opacity="0" stroke="#000000" stroke-width="1"/>
        </g>
      </g>
      <g>
        <g>
          <path d="M298.362,227.335 L357.543,227.335 L357.543,286.516 L298.362,286.516 L298.362,227.335 z" fill="#FFFFFF"/>
          <path d="M298.362,227.335 L357.543,227.335 L357.543,286.516 L298.362,286.516 L298.362,227.335 z" fill-opacity="0" stroke="#000000" stroke-width="1"/>
        </g>
        <g>
          <path d="M327.953,278.125 C316.244,278.125 306.753,268.634 306.753,256.926 C306.753,245.218 316.244,235.726 327.953,235.726 C339.661,235.726 349.152,245.218 349.152,256.926 C349.152,268.634 339.661,278.125 327.953,278.125 z" fill="#FFFFFF"/>
          <path d="M327.953,278.125 C316.244,278.125 306.753,268.634 306.753,256.926 C306.753,245.218 316.244,235.726 327.953,235.726 C339.661,235.726 349.152,245.218 349.152,256.926 C349.152,268.634 339.661,278.125 327.953,278.125 z" fill-opacity="0" stroke="#000000" stroke-width="1"/>
        </g>
      </g>
      <g>
        <g>
          <path d="M519.819,227.335 L579,227.335 L579,286.516 L519.819,286.516 L519.819,227.335 z" fill="#FFFFFF"/>
          <path d="M519.819,227.335 L579,227.335 L579,286.516 L519.819,286.516 L519.819,227.335 z" fill-opacity="0" stroke="#000000" stroke-width="1"/>
        </g>
        <g>
          <path d="M549.41,278.125 C537.701,278.125 528.21,268.634 528.21,256.926 C528.21,245.218 537.701,235.726 549.41,235.726 C561.118,235.726 570.609,245.218 570.609,256.926 C570.609,268.634 561.118,278.125 549.41,278.125 z" fill="#FFFFFF"/>
          <path d="M549.41,278.125 C537.701,278.125 528.21,268.634 528.21,256.926 C528.21,245.218 537.701,235.726 549.41,235.726 C561.118,235.726 570.609,245.218 570.609,256.926 C570.609,268.634 561.118,278.125 549.41,278.125 z" fill-opacity="0" stroke="#000000" stroke-width="1"/>
        </g>
      </g>
      <g>
        <g>
          <path d="M593.638,227.335 L652.819,227.335 L652.819,286.516 L593.638,286.516 L593.638,227.335 z" fill="#FFFFFF"/>
          <path d="M593.638,227.335 L652.819,227.335 L652.819,286.516 L593.638,286.516 L593.638,227.335 z" fill-opacity="0" stroke="#000000" stroke-width="1"/>
        </g>
        <g>
          <path d="M623.229,278.125 C611.52,278.125 602.029,268.634 602.029,256.926 C602.029,245.218 611.52,235.726 623.229,235.726 C634.937,235.726 644.428,245.218 644.428,256.926 C644.428,268.634 634.937,278.125 623.229,278.125 z" fill="#FFFFFF"/>
          <path d="M623.229,278.125 C611.52,278.125 602.029,268.634 602.029,256.926 C602.029,245.218 611.52,235.726 623.229,235.726 C634.937,235.726 644.428,245.218 644.428,256.926 C644.428,268.634 634.937,278.125 623.229,278.125 z" fill-opacity="0" stroke="#000000" stroke-width="1"/>
        </g>
      </g>
      <g>
        <g>
          <path d="M372.181,227.335 L431.362,227.335 L431.362,286.516 L372.181,286.516 L372.181,227.335 z" fill="#FFFFFF"/>
          <path d="M372.181,227.335 L431.362,227.335 L431.362,286.516 L372.181,286.516 L372.181,227.335 z" fill-opacity="0" stroke="#000000" stroke-width="1"/>
        </g>
        <g>
          <path d="M401.772,278.125 C390.064,278.125 380.572,268.634 380.572,256.926 C380.572,245.218 390.064,235.726 401.772,235.726 C413.48,235.726 422.971,245.218 422.971,256.926 C422.971,268.634 413.48,278.125 401.772,278.125 z" fill="#FFFFFF"/>
          <path d="M401.772,278.125 C390.064,278.125 380.572,268.634 380.572,256.926 C380.572,245.218 390.064,235.726 401.772,235.726 C413.48,235.726 422.971,245.218 422.971,256.926 C422.971,268.634 413.48,278.125 401.772,278.125 z" fill-opacity="0" stroke="#000000" stroke-width="1"/>
        </g>
      </g>
      <g>
        <g>
          <path d="M446,227.335 L505.181,227.335 L505.181,286.516 L446,286.516 L446,227.335 z" fill="#FFFFFF"/>
          <path d="M446,227.335 L505.181,227.335 L505.181,286.516 L446,286.516 L446,227.335 z" fill-opacity="0" stroke="#000000" stroke-width="1"/>
        </g>
        <g>
          <path d="M475.591,278.125 C463.883,278.125 454.391,268.634 454.391,256.926 C454.391,245.218 463.883,235.726 475.591,235.726 C487.299,235.726 496.79,245.218 496.79,256.926 C496.79,268.634 487.299,278.125 475.591,278.125 z" fill="#FFFFFF"/>
          <path d="M475.591,278.125 C463.883,278.125 454.391,268.634 454.391,256.926 C454.391,245.218 463.883,235.726 475.591,235.726 C487.299,235.726 496.79,245.218 496.79,256.926 C496.79,268.634 487.299,278.125 475.591,278.125 z" fill-opacity="0" stroke="#000000" stroke-width="1"/>
        </g>
      </g>
      <g>
        <g>
          <path d="M667.457,227.335 L726.638,227.335 L726.638,286.516 L667.457,286.516 L667.457,227.335 z" fill="#FFFFFF"/>
          <path d="M667.457,227.335 L726.638,227.335 L726.638,286.516 L667.457,286.516 L667.457,227.335 z" fill-opacity="0" stroke="#000000" stroke-width="1"/>
        </g>
        <g>
          <path d="M697.047,278.125 C685.339,278.125 675.848,268.634 675.848,256.926 C675.848,245.218 685.339,235.726 697.047,235.726 C708.756,235.726 718.247,245.218 718.247,256.926 C718.247,268.634 708.756,278.125 697.047,278.125 z" fill="#FFFFFF"/>
          <path d="M697.047,278.125 C685.339,278.125 675.848,268.634 675.848,256.926 C675.848,245.218 685.339,235.726 697.047,235.726 C708.756,235.726 718.247,245.218 718.247,256.926 C718.247,268.634 708.756,278.125 697.047,278.125 z" fill-opacity="0" stroke="#000000" stroke-width="1"/>
        </g>
      </g>
      <g>
        <g>
          <path d="M741.276,227.335 L800.457,227.335 L800.457,286.516 L741.276,286.516 L741.276,227.335 z" fill="#FFFFFF"/>
          <path d="M741.276,227.335 L800.457,227.335 L800.457,286.516 L741.276,286.516 L741.276,227.335 z" fill-opacity="0" stroke="#000000" stroke-width="1"/>
        </g>
        <g>
          <path d="M770.866,278.125 C759.158,278.125 749.667,268.634 749.667,256.926 C749.667,245.218 759.158,235.726 770.866,235.726 C782.575,235.726 792.066,245.218 792.066,256.926 C792.066,268.634 782.575,278.125 770.866,278.125 z" fill="#FFFFFF"/>
          <path d="M770.866,278.125 C759.158,278.125 749.667,268.634 749.667,256.926 C749.667,245.218 759.158,235.726 770.866,235.726 C782.575,235.726 792.066,245.218 792.066,256.926 C792.066,268.634 782.575,278.125 770.866,278.125 z" fill-opacity="0" stroke="#000000" stroke-width="1"/>
        </g>
      </g>
    </g>
    <g>
      <g>
        <g>
          <path d="M224.543,567.533 L283.724,567.533 L283.724,626.715 L224.543,626.715 L224.543,567.533 z" fill="#FFFFFF"/>
          <path d="M224.543,567.533 L283.724,567.533 L283.724,626.715 L224.543,626.715 L224.543,567.533 z" fill-opacity="0" stroke="#000000" stroke-width="1"/>
        </g>
        <g>
          <path d="M254.134,618.323 C242.425,618.323 232.934,608.832 232.934,597.124 C232.934,585.416 242.425,575.925 254.134,575.925 C265.842,575.925 275.333,585.416 275.333,597.124 C275.333,608.832 265.842,618.323 254.134,618.323 z" fill="#00EC2C"/>
          <path d="M254.134,618.323 C242.425,618.323 232.934,608.832 232.934,597.124 C232.934,585.416 242.425,575.925 254.134,575.925 C265.842,575.925 275.333,585.416 275.333,597.124 C275.333,608.832 265.842,618.323 254.134,618.323 z" fill-opacity="0" stroke="#000000" stroke-width="1"/>
        </g>
      </g>
      <g>
        <g>
          <path d="M298.362,567.533 L357.543,567.533 L357.543,626.715 L298.362,626.715 L298.362,567.533 z" fill="#FFFFFF"/>
          <path d="M298.362,567.533 L357.543,567.533 L357.543,626.715 L298.362,626.715 L298.362,567.533 z" fill-opacity="0" stroke="#000000" stroke-width="1"/>
        </g>
        <g>
          <path d="M327.953,618.323 C316.244,618.323 306.753,608.832 306.753,597.124 C306.753,585.416 316.244,575.925 327.953,575.925 C339.661,575.925 349.152,585.416 349.152,597.124 C349.152,608.832 339.661,618.323 327.953,618.323 z" fill="#FFFFFF"/>
          <path d="M327.953,618.323 C316.244,618.323 306.753,608.832 306.753,597.124 C306.753,585.416 316.244,575.925 327.953,575.925 C339.661,575.925 349.152,585.416 349.152,597.124 C349.152,608.832 339.661,618.323 327.953,618.323 z" fill-opacity="0" stroke="#000000" stroke-width="1"/>
        </g>
      </g>
      <g>
        <g>
          <path d="M519.819,567.533 L579,567.533 L579,626.715 L519.819,626.715 L519.819,567.533 z" fill="#FFFFFF"/>
          <path d="M519.819,567.533 L579,567.533 L579,626.715 L519.819,626.715 L519.819,567.533 z" fill-opacity="0" stroke="#000000" stroke-width="1"/>
        </g>
        <g>
          <path d="M549.41,618.323 C537.701,618.323 528.21,608.832 528.21,597.124 C528.21,585.416 537.701,575.925 549.41,575.925 C561.118,575.925 570.609,585.416 570.609,597.124 C570.609,608.832 561.118,618.323 549.41,618.323 z" fill="#FFFFFF"/>
          <path d="M549.41,618.323 C537.701,618.323 528.21,608.832 528.21,597.124 C528.21,585.416 537.701,575.925 549.41,575.925 C561.118,575.925 570.609,585.416 570.609,597.124 C570.609,608.832 561.118,618.323 549.41,618.323 z" fill-opacity="0" stroke="#000000" stroke-width="1"/>
        </g>
      </g>
      <g>
        <g>
          <path d="M593.638,567.533 L652.819,567.533 L652.819,626.715 L593.638,626.715 L593.638,567.533 z" fill="#FFFFFF"/>
          <path d="M593.638,567.533 L652.819,567.533 L652.819,626.715 L593.638,626.715 L593.638,567.533 z" fill-opacity="0" stroke="#000000" stroke-width="1"/>
        </g>
        <g>
          <path d="M623.229,618.323 C611.52,618.323 602.029,608.832 602.029,597.124 C602.029,585.416 611.52,575.925 623.229,575.925 C634.937,575.925 644.428,585.416 644.428,597.124 C644.428,608.832 634.937,618.323 623.229,618.323 z" fill="#00EC2C"/>
          <path d="M623.229,618.323 C611.52,618.323 602.029,608.832 602.029,597.124 C602.029,585.416 611.52,575.925 623.229,575.925 C634.937,575.925 644.428,585.416 644.428,597.124 C644.428,608.832 634.937,618.323 623.229,618.323 z" fill-opacity="0" stroke="#000000" stroke-width="1"/>
        </g>
      </g>
      <g>
        <g>
          <path d="M372.181,567.533 L431.362,567.533 L431.362,626.715 L372.181,626.715 L372.181,567.533 z" fill="#FFFFFF"/>
          <path d="M372.181,567.533 L431.362,567.533 L431.362,626.715 L372.181,626.715 L372.181,567.533 z" fill-opacity="0" stroke="#000000" stroke-width="1"/>
        </g>
        <g>
          <path d="M401.772,618.323 C390.064,618.323 380.572,608.832 380.572,597.124 C380.572,585.416 390.064,575.925 401.772,575.925 C413.48,575.925 422.971,585.416 422.971,597.124 C422.971,608.832 413.48,618.323 401.772,618.323 z" fill="#FFFFFF"/>
          <path d="M401.772,618.323 C390.064,618.323 380.572,608.832 380.572,597.124 C380.572,585.416 390.064,575.925 401.772,575.925 C413.48,575.925 422.971,585.416 422.971,597.124 C422.971,608.832 413.48,618.323 401.772,618.323 z" fill-opacity="0" stroke="#000000" stroke-width="1"/>
        </g>
      </g>
      <g>
        <g>
          <path d="M446,567.533 L505.181,567.533 L505.181,626.715 L446,626.715 L446,567.533 z" fill="#FFFFFF"/>
          <path d="M446,567.533 L505.181,567.533 L505.181,626.715 L446,626.715 L446,567.533 z" fill-opacity="0" stroke="#000000" stroke-width="1"/>
        </g>
        <g>
          <path d="M475.591,618.323 C463.883,618.323 454.391,608.832 454.391,597.124 C454.391,585.416 463.883,575.925 475.591,575.925 C487.299,575.925 496.79,585.416 496.79,597.124 C496.79,608.832 487.299,618.323 475.591,618.323 z" fill="#0137CF"/>
          <path d="M475.591,618.323 C463.883,618.323 454.391,608.832 454.391,597.124 C454.391,585.416 463.883,575.925 475.591,575.925 C487.299,575.925 496.79,585.416 496.79,597.124 C496.79,608.832 487.299,618.323 475.591,618.323 z" fill-opacity="0" stroke="#000000" stroke-width="1"/>
        </g>
      </g>
      <g>
        <g>
          <path d="M667.457,567.533 L726.638,567.533 L726.638,626.715 L667.457,626.715 L667.457,567.533 z" fill="#FFFFFF"/>
          <path d="M667.457,567.533 L726.638,567.533 L726.638,626.715 L667.457,626.715 L667.457,567.533 z" fill-opacity="0" stroke="#000000" stroke-width="1"/>
        </g>
        <g>
          <path d="M697.047,618.323 C685.339,618.323 675.848,608.832 675.848,597.124 C675.848,585.416 685.339,575.925 697.047,575.925 C708.756,575.925 718.247,585.416 718.247,597.124 C718.247,608.832 708.756,618.323 697.047,618.323 z" fill="#FFFFFF"/>
          <path d="M697.047,618.323 C685.339,618.323 675.848,608.832 675.848,597.124 C675.848,585.416 685.339,575.925 697.047,575.925 C708.756,575.925 718.247,585.416 718.247,597.124 C718.247,608.832 708.756,618.323 697.047,618.323 z" fill-opacity="0" stroke="#000000" stroke-width="1"/>
        </g>
      </g>
      <g>
        <g>
          <path d="M741.276,567.533 L800.457,567.533 L800.457,626.715 L741.276,626.715 L741.276,567.533 z" fill="#FFFFFF"/>
          <path d="M741.276,567.533 L800.457,567.533 L800.457,626.715 L741.276,626.715 L741.276,567.533 z" fill-opacity="0" stroke="#000000" stroke-width="1"/>
        </g>
        <g>
          <path d="M770.366,617.823 C758.658,617.823 749.167,608.332 749.167,596.624 C749.167,584.916 758.658,575.425 770.366,575.425 C782.075,575.425 791.566,584.916 791.566,596.624 C791.566,608.332 782.075,617.823 770.366,617.823 z" fill="url(#Pattern_1)"/>
          <path d="M770.366,617.823 C758.658,617.823 749.167,608.332 749.167,596.624 C749.167,584.916 758.658,575.425 770.366,575.425 C782.075,575.425 791.566,584.916 791.566,596.624 C791.566,608.332 782.075,617.823 770.366,617.823 z" fill-opacity="0" stroke="#000000" stroke-width="1"/>
        </g>
      </g>
    </g>
    <g>
      <g>
        <g>
          <path d="M224.543,142.285 L283.724,142.285 L283.724,201.467 L224.543,201.467 L224.543,142.285 z" fill="#FFFFFF"/>
          <path d="M224.543,142.285 L283.724,142.285 L283.724,201.467 L224.543,201.467 L224.543,142.285 z" fill-opacity="0" stroke="#000000" stroke-width="1"/>
        </g>
        <g>
          <path d="M254.134,193.075 C242.425,193.075 232.934,183.584 232.934,171.876 C232.934,160.168 242.425,150.677 254.134,150.677 C265.842,150.677 275.333,160.168 275.333,171.876 C275.333,183.584 265.842,193.075 254.134,193.075 z" fill="#00EC2C"/>
          <path d="M254.134,193.075 C242.425,193.075 232.934,183.584 232.934,171.876 C232.934,160.168 242.425,150.677 254.134,150.677 C265.842,150.677 275.333,160.168 275.333,171.876 C275.333,183.584 265.842,193.075 254.134,193.075 z" fill-opacity="0" stroke="#000000" stroke-width="1"/>
        </g>
      </g>
      <g>
        <g>
          <path d="M298.362,142.285 L357.543,142.285 L357.543,201.467 L298.362,201.467 L298.362,142.285 z" fill="#FFFFFF"/>
          <path d="M298.362,142.285 L357.543,142.285 L357.543,201.467 L298.362,201.467 L298.362,142.285 z" fill-opacity="0" stroke="#000000" stroke-width="1"/>
        </g>
        <g>
          <path d="M327.953,193.075 C316.244,193.075 306.753,183.584 306.753,171.876 C306.753,160.168 316.244,150.677 327.953,150.677 C339.661,150.677 349.152,160.168 349.152,171.876 C349.152,183.584 339.661,193.075 327.953,193.075 z" fill="#FFFFFF"/>
          <path d="M327.953,193.075 C316.244,193.075 306.753,183.584 306.753,171.876 C306.753,160.168 316.244,150.677 327.953,150.677 C339.661,150.677 349.152,160.168 349.152,171.876 C349.152,183.584 339.661,193.075 327.953,193.075 z" fill-opacity="0" stroke="#000000" stroke-width="1"/>
        </g>
      </g>
      <g>
        <g>
          <path d="M519.819,142.285 L579,142.285 L579,201.467 L519.819,201.467 L519.819,142.285 z" fill="#FFFFFF"/>
          <path d="M519.819,142.285 L579,142.285 L579,201.467 L519.819,201.467 L519.819,142.285 z" fill-opacity="0" stroke="#000000" stroke-width="1"/>
        </g>
        <g>
          <path d="M549.41,193.075 C537.701,193.075 528.21,183.584 528.21,171.876 C528.21,160.168 537.701,150.677 549.41,150.677 C561.118,150.677 570.609,160.168 570.609,171.876 C570.609,183.584 561.118,193.075 549.41,193.075 z" fill="#FFFFFF"/>
          <path d="M549.41,193.075 C537.701,193.075 528.21,183.584 528.21,171.876 C528.21,160.168 537.701,150.677 549.41,150.677 C561.118,150.677 570.609,160.168 570.609,171.876 C570.609,183.584 561.118,193.075 549.41,193.075 z" fill-opacity="0" stroke="#000000" stroke-width="1"/>
        </g>
      </g>
      <g>
        <g>
          <path d="M593.638,142.285 L652.819,142.285 L652.819,201.467 L593.638,201.467 L593.638,142.285 z" fill="#FFFFFF"/>
          <path d="M593.638,142.285 L652.819,142.285 L652.819,201.467 L593.638,201.467 L593.638,142.285 z" fill-opacity="0" stroke="#000000" stroke-width="1"/>
        </g>
        <g>
          <path d="M623.229,193.075 C611.52,193.075 602.029,183.584 602.029,171.876 C602.029,160.168 611.52,150.677 623.229,150.677 C634.937,150.677 644.428,160.168 644.428,171.876 C644.428,183.584 634.937,193.075 623.229,193.075 z" fill="#FFFFFF"/>
          <path d="M623.229,193.075 C611.52,193.075 602.029,183.584 602.029,171.876 C602.029,160.168 611.52,150.677 623.229,150.677 C634.937,150.677 644.428,160.168 644.428,171.876 C644.428,183.584 634.937,193.075 623.229,193.075 z" fill-opacity="0" stroke="#000000" stroke-width="1"/>
        </g>
      </g>
      <g>
        <g>
          <path d="M372.181,142.285 L431.362,142.285 L431.362,201.467 L372.181,201.467 L372.181,142.285 z" fill="#FFFFFF"/>
          <path d="M372.181,142.285 L431.362,142.285 L431.362,201.467 L372.181,201.467 L372.181,142.285 z" fill-opacity="0" stroke="#000000" stroke-width="1"/>
        </g>
        <g>
          <path d="M401.772,193.075 C390.064,193.075 380.572,183.584 380.572,171.876 C380.572,160.168 390.064,150.677 401.772,150.677 C413.48,150.677 422.971,160.168 422.971,171.876 C422.971,183.584 413.48,193.075 401.772,193.075 z" fill="#FFFFFF"/>
          <path d="M401.772,193.075 C390.064,193.075 380.572,183.584 380.572,171.876 C380.572,160.168 390.064,150.677 401.772,150.677 C413.48,150.677 422.971,160.168 422.971,171.876 C422.971,183.584 413.48,193.075 401.772,193.075 z" fill-opacity="0" stroke="#000000" stroke-width="1"/>
        </g>
      </g>
      <g>
        <g>
          <path d="M446,142.285 L505.181,142.285 L505.181,201.467 L446,201.467 L446,142.285 z" fill="#FFFFFF"/>
          <path d="M446,142.285 L505.181,142.285 L505.181,201.467 L446,201.467 L446,142.285 z" fill-opacity="0" stroke="#000000" stroke-width="1"/>
        </g>
        <g>
          <path d="M475.591,193.075 C463.883,193.075 454.391,183.584 454.391,171.876 C454.391,160.168 463.883,150.677 475.591,150.677 C487.299,150.677 496.79,160.168 496.79,171.876 C496.79,183.584 487.299,193.075 475.591,193.075 z" fill="#FFFFFF"/>
          <path d="M475.591,193.075 C463.883,193.075 454.391,183.584 454.391,171.876 C454.391,160.168 463.883,150.677 475.591,150.677 C487.299,150.677 496.79,160.168 496.79,171.876 C496.79,183.584 487.299,193.075 475.591,193.075 z" fill-opacity="0" stroke="#000000" stroke-width="1"/>
        </g>
      </g>
      <g>
        <g>
          <path d="M667.457,142.285 L726.638,142.285 L726.638,201.467 L667.457,201.467 L667.457,142.285 z" fill="#FFFFFF"/>
          <path d="M667.457,142.285 L726.638,142.285 L726.638,201.467 L667.457,201.467 L667.457,142.285 z" fill-opacity="0" stroke="#000000" stroke-width="1"/>
        </g>
        <g>
          <path d="M697.047,193.075 C685.339,193.075 675.848,183.584 675.848,171.876 C675.848,160.168 685.339,150.677 697.047,150.677 C708.756,150.677 718.247,160.168 718.247,171.876 C718.247,183.584 708.756,193.075 697.047,193.075 z" fill="#FFFFFF"/>
          <path d="M697.047,193.075 C685.339,193.075 675.848,183.584 675.848,171.876 C675.848,160.168 685.339,150.677 697.047,150.677 C708.756,150.677 718.247,160.168 718.247,171.876 C718.247,183.584 708.756,193.075 697.047,193.075 z" fill-opacity="0" stroke="#000000" stroke-width="1"/>
        </g>
      </g>
      <g>
        <g>
          <path d="M741.276,142.285 L800.457,142.285 L800.457,201.467 L741.276,201.467 L741.276,142.285 z" fill="#FFFFFF"/>
          <path d="M741.276,142.285 L800.457,142.285 L800.457,201.467 L741.276,201.467 L741.276,142.285 z" fill-opacity="0" stroke="#000000" stroke-width="1"/>
        </g>
        <g>
          <path d="M770.866,193.075 C759.158,193.075 749.667,183.584 749.667,171.876 C749.667,160.168 759.158,150.677 770.866,150.677 C782.575,150.677 792.066,160.168 792.066,171.876 C792.066,183.584 782.575,193.075 770.866,193.075 z" fill="#FFFFFF"/>
          <path d="M770.866,193.075 C759.158,193.075 749.667,183.584 749.667,171.876 C749.667,160.168 759.158,150.677 770.866,150.677 C782.575,150.677 792.066,160.168 792.066,171.876 C792.066,183.584 782.575,193.075 770.866,193.075 z" fill-opacity="0" stroke="#000000" stroke-width="1"/>
        </g>
      </g>
    </g>
    <g>
      <g>
        <g>
          <path d="M224.543,482.484 L283.724,482.484 L283.724,541.665 L224.543,541.665 L224.543,482.484 z" fill="#FFFFFF"/>
          <path d="M224.543,482.484 L283.724,482.484 L283.724,541.665 L224.543,541.665 L224.543,482.484 z" fill-opacity="0" stroke="#000000" stroke-width="1"/>
        </g>
        <g>
          <path d="M254.134,533.274 C242.425,533.274 232.934,523.782 232.934,512.074 C232.934,500.366 242.425,490.875 254.134,490.875 C265.842,490.875 275.333,500.366 275.333,512.074 C275.333,523.782 265.842,533.274 254.134,533.274 z" fill="#0137CF"/>
          <path d="M254.134,533.274 C242.425,533.274 232.934,523.782 232.934,512.074 C232.934,500.366 242.425,490.875 254.134,490.875 C265.842,490.875 275.333,500.366 275.333,512.074 C275.333,523.782 265.842,533.274 254.134,533.274 z" fill-opacity="0" stroke="#000000" stroke-width="1"/>
        </g>
      </g>
      <g>
        <g>
          <path d="M298.362,482.484 L357.543,482.484 L357.543,541.665 L298.362,541.665 L298.362,482.484 z" fill="#FFFFFF"/>
          <path d="M298.362,482.484 L357.543,482.484 L357.543,541.665 L298.362,541.665 L298.362,482.484 z" fill-opacity="0" stroke="#000000" stroke-width="1"/>
        </g>
        <g>
          <path d="M327.953,533.274 C316.244,533.274 306.753,523.782 306.753,512.074 C306.753,500.366 316.244,490.875 327.953,490.875 C339.661,490.875 349.152,500.366 349.152,512.074 C349.152,523.782 339.661,533.274 327.953,533.274 z" fill="#FFFFFF"/>
          <path d="M327.953,533.274 C316.244,533.274 306.753,523.782 306.753,512.074 C306.753,500.366 316.244,490.875 327.953,490.875 C339.661,490.875 349.152,500.366 349.152,512.074 C349.152,523.782 339.661,533.274 327.953,533.274 z" fill-opacity="0" stroke="#000000" stroke-width="1"/>
        </g>
      </g>
      <g>
        <g>
          <path d="M519.819,482.484 L579,482.484 L579,541.665 L519.819,541.665 L519.819,482.484 z" fill="#FFFFFF"/>
          <path d="M519.819,482.484 L579,482.484 L579,541.665 L519.819,541.665 L519.819,482.484 z" fill-opacity="0" stroke="#000000" stroke-width="1"/>
        </g>
        <g>
          <path d="M549.41,533.274 C537.701,533.274 528.21,523.782 528.21,512.074 C528.21,500.366 537.701,490.875 549.41,490.875 C561.118,490.875 570.609,500.366 570.609,512.074 C570.609,523.782 561.118,533.274 549.41,533.274 z" fill="#FFFFFF"/>
          <path d="M549.41,533.274 C537.701,533.274 528.21,523.782 528.21,512.074 C528.21,500.366 537.701,490.875 549.41,490.875 C561.118,490.875 570.609,500.366 570.609,512.074 C570.609,523.782 561.118,533.274 549.41,533.274 z" fill-opacity="0" stroke="#000000" stroke-width="1"/>
        </g>
      </g>
      <g>
        <g>
          <path d="M593.638,482.484 L652.819,482.484 L652.819,541.665 L593.638,541.665 L593.638,482.484 z" fill="#FFFFFF"/>
          <path d="M593.638,482.484 L652.819,482.484 L652.819,541.665 L593.638,541.665 L593.638,482.484 z" fill-opacity="0" stroke="#000000" stroke-width="1"/>
        </g>
        <g>
          <path d="M623.229,533.274 C611.52,533.274 602.029,523.782 602.029,512.074 C602.029,500.366 611.52,490.875 623.229,490.875 C634.937,490.875 644.428,500.366 644.428,512.074 C644.428,523.782 634.937,533.274 623.229,533.274 z" fill="#00EC2C"/>
          <path d="M623.229,533.274 C611.52,533.274 602.029,523.782 602.029,512.074 C602.029,500.366 611.52,490.875 623.229,490.875 C634.937,490.875 644.428,500.366 644.428,512.074 C644.428,523.782 634.937,533.274 623.229,533.274 z" fill-opacity="0" stroke="#000000" stroke-width="1"/>
        </g>
      </g>
      <g>
        <g>
          <path d="M372.181,482.484 L431.362,482.484 L431.362,541.665 L372.181,541.665 L372.181,482.484 z" fill="#FFFFFF"/>
          <path d="M372.181,482.484 L431.362,482.484 L431.362,541.665 L372.181,541.665 L372.181,482.484 z" fill-opacity="0" stroke="#000000" stroke-width="1"/>
        </g>
        <g>
          <path d="M401.772,533.274 C390.064,533.274 380.572,523.782 380.572,512.074 C380.572,500.366 390.064,490.875 401.772,490.875 C413.48,490.875 422.971,500.366 422.971,512.074 C422.971,523.782 413.48,533.274 401.772,533.274 z" fill="#FFFFFF"/>
          <path d="M401.772,533.274 C390.064,533.274 380.572,523.782 380.572,512.074 C380.572,500.366 390.064,490.875 401.772,490.875 C413.48,490.875 422.971,500.366 422.971,512.074 C422.971,523.782 413.48,533.274 401.772,533.274 z" fill-opacity="0" stroke="#000000" stroke-width="1"/>
        </g>
      </g>
      <g>
        <g>
          <path d="M446,482.484 L505.181,482.484 L505.181,541.665 L446,541.665 L446,482.484 z" fill="#FFFFFF"/>
          <path d="M446,482.484 L505.181,482.484 L505.181,541.665 L446,541.665 L446,482.484 z" fill-opacity="0" stroke="#000000" stroke-width="1"/>
        </g>
        <g>
          <path d="M475.591,533.274 C463.883,533.274 454.391,523.782 454.391,512.074 C454.391,500.366 463.883,490.875 475.591,490.875 C487.299,490.875 496.79,500.366 496.79,512.074 C496.79,523.782 487.299,533.274 475.591,533.274 z" fill="#FFFFFF"/>
          <path d="M475.591,533.274 C463.883,533.274 454.391,523.782 454.391,512.074 C454.391,500.366 463.883,490.875 475.591,490.875 C487.299,490.875 496.79,500.366 496.79,512.074 C496.79,523.782 487.299,533.274 475.591,533.274 z" fill-opacity="0" stroke="#000000" stroke-width="1"/>
        </g>
      </g>
      <g>
        <g>
          <path d="M667.457,482.484 L726.638,482.484 L726.638,541.665 L667.457,541.665 L667.457,482.484 z" fill="#FFFFFF"/>
          <path d="M667.457,482.484 L726.638,482.484 L726.638,541.665 L667.457,541.665 L667.457,482.484 z" fill-opacity="0" stroke="#000000" stroke-width="1"/>
        </g>
        <g>
          <path d="M697.047,533.274 C685.339,533.274 675.848,523.782 675.848,512.074 C675.848,500.366 685.339,490.875 697.047,490.875 C708.756,490.875 718.247,500.366 718.247,512.074 C718.247,523.782 708.756,533.274 697.047,533.274 z" fill="#FFFFFF"/>
          <path d="M697.047,533.274 C685.339,533.274 675.848,523.782 675.848,512.074 C675.848,500.366 685.339,490.875 697.047,490.875 C708.756,490.875 718.247,500.366 718.247,512.074 C718.247,523.782 708.756,533.274 697.047,533.274 z" fill-opacity="0" stroke="#000000" stroke-width="1"/>
        </g>
      </g>
      <g>
        <g>
          <path d="M741.276,482.484 L800.457,482.484 L800.457,541.665 L741.276,541.665 L741.276,482.484 z" fill="#FFFFFF"/>
          <path d="M741.276,482.484 L800.457,482.484 L800.457,541.665 L741.276,541.665 L741.276,482.484 z" fill-opacity="0" stroke="#000000" stroke-width="1"/>
        </g>
        <g>
          <path d="M770.866,533.274 C759.158,533.274 749.667,523.782 749.667,512.074 C749.667,500.366 759.158,490.875 770.866,490.875 C782.575,490.875 792.066,500.366 792.066,512.074 C792.066,523.782 782.575,533.274 770.866,533.274 z" fill="#FFFFFF"/>
          <path d="M770.866,533.274 C759.158,533.274 749.667,523.782 749.667,512.074 C749.667,500.366 759.158,490.875 770.866,490.875 C782.575,490.875 792.066,500.366 792.066,512.074 C792.066,523.782 782.575,533.274 770.866,533.274 z" fill-opacity="0" stroke="#000000" stroke-width="1"/>
        </g>
      </g>
    </g>
    <g>
      <g>
        <g>
          <path d="M224.543,312.384 L283.724,312.384 L283.724,371.566 L224.543,371.566 L224.543,312.384 z" fill="#FFFFFF"/>
          <path d="M224.543,312.384 L283.724,312.384 L283.724,371.566 L224.543,371.566 L224.543,312.384 z" fill-opacity="0" stroke="#000000" stroke-width="1"/>
        </g>
        <g>
          <path d="M254.134,363.174 C242.425,363.174 232.934,353.683 232.934,341.975 C232.934,330.267 242.425,320.776 254.134,320.776 C265.842,320.776 275.333,330.267 275.333,341.975 C275.333,353.683 265.842,363.174 254.134,363.174 z" fill="#FFFFFF"/>
          <path d="M254.134,363.174 C242.425,363.174 232.934,353.683 232.934,341.975 C232.934,330.267 242.425,320.776 254.134,320.776 C265.842,320.776 275.333,330.267 275.333,341.975 C275.333,353.683 265.842,363.174 254.134,363.174 z" fill-opacity="0" stroke="#000000" stroke-width="1"/>
        </g>
      </g>
      <g>
        <g>
          <path d="M298.362,312.384 L357.543,312.384 L357.543,371.566 L298.362,371.566 L298.362,312.384 z" fill="#FFFFFF"/>
          <path d="M298.362,312.384 L357.543,312.384 L357.543,371.566 L298.362,371.566 L298.362,312.384 z" fill-opacity="0" stroke="#000000" stroke-width="1"/>
        </g>
        <g>
          <path d="M327.953,363.174 C316.244,363.174 306.753,353.683 306.753,341.975 C306.753,330.267 316.244,320.776 327.953,320.776 C339.661,320.776 349.152,330.267 349.152,341.975 C349.152,353.683 339.661,363.174 327.953,363.174 z" fill="#FFFFFF"/>
          <path d="M327.953,363.174 C316.244,363.174 306.753,353.683 306.753,341.975 C306.753,330.267 316.244,320.776 327.953,320.776 C339.661,320.776 349.152,330.267 349.152,341.975 C349.152,353.683 339.661,363.174 327.953,363.174 z" fill-opacity="0" stroke="#000000" stroke-width="1"/>
        </g>
      </g>
      <g>
        <g>
          <path d="M519.819,312.384 L579,312.384 L579,371.566 L519.819,371.566 L519.819,312.384 z" fill="#FFFFFF"/>
          <path d="M519.819,312.384 L579,312.384 L579,371.566 L519.819,371.566 L519.819,312.384 z" fill-opacity="0" stroke="#000000" stroke-width="1"/>
        </g>
        <g>
          <path d="M549.41,363.174 C537.701,363.174 528.21,353.683 528.21,341.975 C528.21,330.267 537.701,320.776 549.41,320.776 C561.118,320.776 570.609,330.267 570.609,341.975 C570.609,353.683 561.118,363.174 549.41,363.174 z" fill="#FFFFFF"/>
          <path d="M549.41,363.174 C537.701,363.174 528.21,353.683 528.21,341.975 C528.21,330.267 537.701,320.776 549.41,320.776 C561.118,320.776 570.609,330.267 570.609,341.975 C570.609,353.683 561.118,363.174 549.41,363.174 z" fill-opacity="0" stroke="#000000" stroke-width="1"/>
        </g>
      </g>
      <g>
        <g>
          <path d="M593.638,312.384 L652.819,312.384 L652.819,371.566 L593.638,371.566 L593.638,312.384 z" fill="#FFFFFF"/>
          <path d="M593.638,312.384 L652.819,312.384 L652.819,371.566 L593.638,371.566 L593.638,312.384 z" fill-opacity="0" stroke="#000000" stroke-width="1"/>
        </g>
        <g>
          <path d="M623.229,363.174 C611.52,363.174 602.029,353.683 602.029,341.975 C602.029,330.267 611.52,320.776 623.229,320.776 C634.937,320.776 644.428,330.267 644.428,341.975 C644.428,353.683 634.937,363.174 623.229,363.174 z" fill="#FFFFFF"/>
          <path d="M623.229,363.174 C611.52,363.174 602.029,353.683 602.029,341.975 C602.029,330.267 611.52,320.776 623.229,320.776 C634.937,320.776 644.428,330.267 644.428,341.975 C644.428,353.683 634.937,363.174 623.229,363.174 z" fill-opacity="0" stroke="#000000" stroke-width="1"/>
        </g>
      </g>
      <g>
        <g>
          <path d="M372.181,312.384 L431.362,312.384 L431.362,371.566 L372.181,371.566 L372.181,312.384 z" fill="#FFFFFF"/>
          <path d="M372.181,312.384 L431.362,312.384 L431.362,371.566 L372.181,371.566 L372.181,312.384 z" fill-opacity="0" stroke="#000000" stroke-width="1"/>
        </g>
        <g>
          <path d="M401.772,363.174 C390.064,363.174 380.572,353.683 380.572,341.975 C380.572,330.267 390.064,320.776 401.772,320.776 C413.48,320.776 422.971,330.267 422.971,341.975 C422.971,353.683 413.48,363.174 401.772,363.174 z" fill="#FFFFFF"/>
          <path d="M401.772,363.174 C390.064,363.174 380.572,353.683 380.572,341.975 C380.572,330.267 390.064,320.776 401.772,320.776 C413.48,320.776 422.971,330.267 422.971,341.975 C422.971,353.683 413.48,363.174 401.772,363.174 z" fill-opacity="0" stroke="#000000" stroke-width="1"/>
        </g>
      </g>
      <g>
        <g>
          <path d="M446,312.384 L505.181,312.384 L505.181,371.566 L446,371.566 L446,312.384 z" fill="#FFFFFF"/>
          <path d="M446,312.384 L505.181,312.384 L505.181,371.566 L446,371.566 L446,312.384 z" fill-opacity="0" stroke="#000000" stroke-width="1"/>
        </g>
        <g>
          <path d="M475.591,363.174 C463.883,363.174 454.391,353.683 454.391,341.975 C454.391,330.267 463.883,320.776 475.591,320.776 C487.299,320.776 496.79,330.267 496.79,341.975 C496.79,353.683 487.299,363.174 475.591,363.174 z" fill="#FFFFFF"/>
          <path d="M475.591,363.174 C463.883,363.174 454.391,353.683 454.391,341.975 C454.391,330.267 463.883,320.776 475.591,320.776 C487.299,320.776 496.79,330.267 496.79,341.975 C496.79,353.683 487.299,363.174 475.591,363.174 z" fill-opacity="0" stroke="#000000" stroke-width="1"/>
        </g>
      </g>
      <g>
        <g>
          <path d="M667.457,312.384 L726.638,312.384 L726.638,371.566 L667.457,371.566 L667.457,312.384 z" fill="#FFFFFF"/>
          <path d="M667.457,312.384 L726.638,312.384 L726.638,371.566 L667.457,371.566 L667.457,312.384 z" fill-opacity="0" stroke="#000000" stroke-width="1"/>
        </g>
        <g>
          <path d="M697.047,363.174 C685.339,363.174 675.848,353.683 675.848,341.975 C675.848,330.267 685.339,320.776 697.047,320.776 C708.756,320.776 718.247,330.267 718.247,341.975 C718.247,353.683 708.756,363.174 697.047,363.174 z" fill="#FFFFFF"/>
          <path d="M697.047,363.174 C685.339,363.174 675.848,353.683 675.848,341.975 C675.848,330.267 685.339,320.776 697.047,320.776 C708.756,320.776 718.247,330.267 718.247,341.975 C718.247,353.683 708.756,363.174 697.047,363.174 z" fill-opacity="0" stroke="#000000" stroke-width="1"/>
        </g>
      </g>
      <g>
        <g>
          <path d="M741.276,312.384 L800.457,312.384 L800.457,371.566 L741.276,371.566 L741.276,312.384 z" fill="#FFFFFF"/>
          <path d="M741.276,312.384 L800.457,312.384 L800.457,371.566 L741.276,371.566 L741.276,312.384 z" fill-opacity="0" stroke="#000000" stroke-width="1"/>
        </g>
        <g>
          <path d="M770.866,363.174 C759.158,363.174 749.667,353.683 749.667,341.975 C749.667,330.267 759.158,320.776 770.866,320.776 C782.575,320.776 792.066,330.267 792.066,341.975 C792.066,353.683 782.575,363.174 770.866,363.174 z" fill="#FFFFFF"/>
          <path d="M770.866,363.174 C759.158,363.174 749.667,353.683 749.667,341.975 C749.667,330.267 759.158,320.776 770.866,320.776 C782.575,320.776 792.066,330.267 792.066,341.975 C792.066,353.683 782.575,363.174 770.866,363.174 z" fill-opacity="0" stroke="#000000" stroke-width="1"/>
        </g>
      </g>
    </g>
    <g>
      <g>
        <g>
          <path d="M224.543,652.583 L283.724,652.583 L283.724,711.764 L224.543,711.764 L224.543,652.583 z" fill="#FFFFFF"/>
          <path d="M224.543,652.583 L283.724,652.583 L283.724,711.764 L224.543,711.764 L224.543,652.583 z" fill-opacity="0" stroke="#000000" stroke-width="1"/>
        </g>
        <g>
          <path d="M254.134,703.373 C242.425,703.373 232.934,693.882 232.934,682.174 C232.934,670.465 242.425,660.974 254.134,660.974 C265.842,660.974 275.333,670.465 275.333,682.174 C275.333,693.882 265.842,703.373 254.134,703.373 z" fill="#D11D00"/>
          <path d="M254.134,703.373 C242.425,703.373 232.934,693.882 232.934,682.174 C232.934,670.465 242.425,660.974 254.134,660.974 C265.842,660.974 275.333,670.465 275.333,682.174 C275.333,693.882 265.842,703.373 254.134,703.373 z" fill-opacity="0" stroke="#000000" stroke-width="1"/>
        </g>
      </g>
      <g>
        <g>
          <path d="M298.362,652.583 L357.543,652.583 L357.543,711.764 L298.362,711.764 L298.362,652.583 z" fill="#FFFFFF"/>
          <path d="M298.362,652.583 L357.543,652.583 L357.543,711.764 L298.362,711.764 L298.362,652.583 z" fill-opacity="0" stroke="#000000" stroke-width="1"/>
        </g>
        <g>
          <path d="M327.953,703.373 C316.244,703.373 306.753,693.882 306.753,682.174 C306.753,670.465 316.244,660.974 327.953,660.974 C339.661,660.974 349.152,670.465 349.152,682.174 C349.152,693.882 339.661,703.373 327.953,703.373 z" fill="#FFFFFF"/>
          <path d="M327.953,703.373 C316.244,703.373 306.753,693.882 306.753,682.174 C306.753,670.465 316.244,660.974 327.953,660.974 C339.661,660.974 349.152,670.465 349.152,682.174 C349.152,693.882 339.661,703.373 327.953,703.373 z" fill-opacity="0" stroke="#000000" stroke-width="1"/>
        </g>
      </g>
      <g>
        <g>
          <path d="M519.819,652.583 L579,652.583 L579,711.764 L519.819,711.764 L519.819,652.583 z" fill="#FFFFFF"/>
          <path d="M519.819,652.583 L579,652.583 L579,711.764 L519.819,711.764 L519.819,652.583 z" fill-opacity="0" stroke="#000000" stroke-width="1"/>
        </g>
        <g>
          <path d="M549.41,703.373 C537.701,703.373 528.21,693.882 528.21,682.174 C528.21,670.465 537.701,660.974 549.41,660.974 C561.118,660.974 570.609,670.465 570.609,682.174 C570.609,693.882 561.118,703.373 549.41,703.373 z" fill="#FFFFFF"/>
          <path d="M549.41,703.373 C537.701,703.373 528.21,693.882 528.21,682.174 C528.21,670.465 537.701,660.974 549.41,660.974 C561.118,660.974 570.609,670.465 570.609,682.174 C570.609,693.882 561.118,703.373 549.41,703.373 z" fill-opacity="0" stroke="#000000" stroke-width="1"/>
        </g>
      </g>
      <g>
        <g>
          <path d="M593.638,652.583 L652.819,652.583 L652.819,711.764 L593.638,711.764 L593.638,652.583 z" fill="#FFFFFF"/>
          <path d="M593.638,652.583 L652.819,652.583 L652.819,711.764 L593.638,711.764 L593.638,652.583 z" fill-opacity="0" stroke="#000000" stroke-width="1"/>
        </g>
        <g>
          <path d="M623.229,703.373 C611.52,703.373 602.029,693.882 602.029,682.174 C602.029,670.465 611.52,660.974 623.229,660.974 C634.937,660.974 644.428,670.465 644.428,682.174 C644.428,693.882 634.937,703.373 623.229,703.373 z" fill="#00EC2C"/>
          <path d="M623.229,703.373 C611.52,703.373 602.029,693.882 602.029,682.174 C602.029,670.465 611.52,660.974 623.229,660.974 C634.937,660.974 644.428,670.465 644.428,682.174 C644.428,693.882 634.937,703.373 623.229,703.373 z" fill-opacity="0" stroke="#000000" stroke-width="1"/>
        </g>
      </g>
      <g>
        <g>
          <path d="M372.181,652.583 L431.362,652.583 L431.362,711.764 L372.181,711.764 L372.181,652.583 z" fill="#FFFFFF"/>
          <path d="M372.181,652.583 L431.362,652.583 L431.362,711.764 L372.181,711.764 L372.181,652.583 z" fill-opacity="0" stroke="#000000" stroke-width="1"/>
        </g>
        <g>
          <path d="M401.772,703.373 C390.064,703.373 380.572,693.882 380.572,682.174 C380.572,670.465 390.064,660.974 401.772,660.974 C413.48,660.974 422.971,670.465 422.971,682.174 C422.971,693.882 413.48,703.373 401.772,703.373 z" fill="#FFFFFF"/>
          <path d="M401.772,703.373 C390.064,703.373 380.572,693.882 380.572,682.174 C380.572,670.465 390.064,660.974 401.772,660.974 C413.48,660.974 422.971,670.465 422.971,682.174 C422.971,693.882 413.48,703.373 401.772,703.373 z" fill-opacity="0" stroke="#000000" stroke-width="1"/>
        </g>
      </g>
      <g>
        <g>
          <path d="M446,652.583 L505.181,652.583 L505.181,711.764 L446,711.764 L446,652.583 z" fill="#FFFFFF"/>
          <path d="M446,652.583 L505.181,652.583 L505.181,711.764 L446,711.764 L446,652.583 z" fill-opacity="0" stroke="#000000" stroke-width="1"/>
        </g>
        <g>
          <path d="M475.591,703.373 C463.883,703.373 454.391,693.882 454.391,682.174 C454.391,670.465 463.883,660.974 475.591,660.974 C487.299,660.974 496.79,670.465 496.79,682.174 C496.79,693.882 487.299,703.373 475.591,703.373 z" fill="#0142F2"/>
          <path d="M475.591,703.373 C463.883,703.373 454.391,693.882 454.391,682.174 C454.391,670.465 463.883,660.974 475.591,660.974 C487.299,660.974 496.79,670.465 496.79,682.174 C496.79,693.882 487.299,703.373 475.591,703.373 z" fill-opacity="0" stroke="#000000" stroke-width="1"/>
        </g>
      </g>
      <g>
        <g>
          <path d="M667.457,652.583 L726.638,652.583 L726.638,711.764 L667.457,711.764 L667.457,652.583 z" fill="#FFFFFF"/>
          <path d="M667.457,652.583 L726.638,652.583 L726.638,711.764 L667.457,711.764 L667.457,652.583 z" fill-opacity="0" stroke="#000000" stroke-width="1"/>
        </g>
        <g>
          <path d="M697.047,703.373 C685.339,703.373 675.848,693.882 675.848,682.174 C675.848,670.465 685.339,660.974 697.047,660.974 C708.756,660.974 718.247,670.465 718.247,682.174 C718.247,693.882 708.756,703.373 697.047,703.373 z" fill="#FFFFFF"/>
          <path d="M697.047,703.373 C685.339,703.373 675.848,693.882 675.848,682.174 C675.848,670.465 685.339,660.974 697.047,660.974 C708.756,660.974 718.247,670.465 718.247,682.174 C718.247,693.882 708.756,703.373 697.047,703.373 z" fill-opacity="0" stroke="#000000" stroke-width="1"/>
        </g>
      </g>
      <g>
        <g>
          <path d="M741.276,652.583 L800.457,652.583 L800.457,711.764 L741.276,711.764 L741.276,652.583 z" fill="#FFFFFF"/>
          <path d="M741.276,652.583 L800.457,652.583 L800.457,711.764 L741.276,711.764 L741.276,652.583 z" fill-opacity="0" stroke="#000000" stroke-width="1"/>
        </g>
        <g>
          <path d="M770.866,703.373 C759.158,703.373 749.667,693.882 749.667,682.174 C749.667,670.465 759.158,660.974 770.866,660.974 C782.575,660.974 792.066,670.465 792.066,682.174 C792.066,693.882 782.575,703.373 770.866,703.373 z" fill="#A6A6A6"/>
          <path d="M770.866,703.373 C759.158,703.373 749.667,693.882 749.667,682.174 C749.667,670.465 759.158,660.974 770.866,660.974 C782.575,660.974 792.066,670.465 792.066,682.174 C792.066,693.882 782.575,703.373 770.866,703.373 z" fill-opacity="0" stroke="#000000" stroke-width="1"/>
        </g>
      </g>
    </g>
    <text transform="matrix(1, 0, 0, 1, 844.694, 637.764)">
      <tspan x="-36.006" y="13.5" font-family="Courier-Bold" font-size="40" fill="#000000">(a)</tspan>
    </text>
    <text transform="matrix(1, 0, 0, 1, 624.585, 735.764)">
      <tspan x="-36.006" y="13.5" font-family="Courier-Bold" font-size="40" fill="#000000">(b)</tspan>
    </text>
    <text transform="matrix(1, 0, 0, 1, 475.225, 735.764)">
      <tspan x="-36.006" y="13.5" font-family="Courier-Bold" font-size="40" fill="#000000">(c)</tspan>
    </text>
    <text transform="matrix(1, 0, 0, 1, 174.623, 686.764)">
      <tspan x="-36.006" y="13.5" font-family="Courier-Bold" font-size="40" fill="#000000">(d)</tspan>
    </text>
    <text transform="matrix(1, 0, 0, 1, 174.623, 256.426)">
      <tspan x="-36.006" y="13.5" font-family="Courier-Bold" font-size="40" fill="#000000">(e)</tspan>
    </text>
  </g>
</svg>
